<svg width="310" height="81" xmlns="http://www.w3.org/2000/svg" xmlns:sketch="http://www.bohemiancoding.com/sketch/ns"><title>logo_url_bg</title><path d="M103.146 36.782h5.08c1.477 0 2.604-.405 3.375-1.218.773-.813 1.159-1.857 1.159-3.134 0-1.304-.386-2.37-1.159-3.204-.771-.833-1.898-1.248-3.375-1.248h-5.08v8.805zm0 5.239v10.054h-6.833v-29.338h11.913c3.48 0 6.241.89 8.283 2.669 2.044 1.782 3.065 4.108 3.065 6.982 0 2.889-1.021 5.217-3.065 6.984-2.042 1.765-4.804 2.649-8.283 2.649h-5.08zm43.38-19.284v19.223c0 3.346-1.112 5.938-3.336 7.779-2.223 1.839-5.136 2.759-8.736 2.759-3.642 0-6.578-.919-8.809-2.759-2.23-1.841-3.347-4.434-3.347-7.779v-19.223h6.834v19.223c0 1.801.464 3.134 1.391 4 .927.866 2.237 1.3 3.931 1.3 1.679 0 2.971-.43 3.879-1.29.907-.86 1.36-2.197 1.36-4.01v-19.223h6.834zm11.07 24.1h13.365v5.238h-21.75v-3.062l13.122-21.036h-13.182v-5.239h21.629v2.942l-13.184 21.157zm23.882 0h13.364v5.238h-21.749v-3.062l13.122-21.036h-13.184v-5.239h21.629v2.942l-13.184 21.157zm22.753 0h12.638v5.238h-19.472v-29.338h6.834v24.1zm33.348-7.315h-11.51v7.314h13.566v5.238h-20.398v-29.338h20.438v5.239h-13.606v6.306h11.51v5.239zm47.472-11.546h-7.741v24.098h-6.834v-24.098h-7.679v-5.239h22.253v5.239zm-24.798 24.099h-6.793v-29.338h6.793v29.338zm49.667-10.296l.04.12c-.135 3.44-1.154 6.065-3.054 7.88-1.904 1.813-4.66 2.719-8.275 2.719-3.628 0-6.577-1.115-8.849-3.344-2.271-2.23-3.407-5.124-3.407-8.684v-6.126c0-3.546 1.091-6.437 3.276-8.674 2.184-2.237 5.02-3.356 8.516-3.356 3.708 0 6.543.934 8.504 2.8 1.964 1.868 3.072 4.52 3.327 7.959l-.039.121h-6.632c-.095-1.907-.521-3.325-1.28-4.251-.759-.928-2.053-1.391-3.879-1.391-1.546 0-2.763.622-3.65 1.864-.886 1.243-1.33 2.871-1.33 4.886v6.166c0 2.028.484 3.668 1.452 4.916.967 1.25 2.297 1.875 3.991 1.875 1.64 0 2.802-.437 3.487-1.311.685-.872 1.075-2.263 1.168-4.17h6.633zm-298.2 27.232c-15.628-15.622-15.628-40.948 0-56.57 15.625-15.62 40.962-15.618 56.588 0 15.627 15.623 15.626 40.947 0 56.569-15.627 15.622-40.961 15.623-56.588.001zm86.632-1.765l.167.948h.043l.203-.948 1.563-4.978h1.144l1.57 4.978.224 1.056h.042l.21-1.056 1.23-4.978h1.419l-2.273 7.828h-1.15l-1.513-4.768-.326-1.331-.042.007-.312 1.324-1.491 4.768h-1.15l-2.273-7.828h1.419l1.296 4.978zm11.544 0l.167.948h.043l.203-.948 1.563-4.978h1.144l1.57 4.978.224 1.056h.042l.21-1.056 1.23-4.978h1.419l-2.273 7.828h-1.15l-1.513-4.768-.326-1.331-.042.007-.312 1.324-1.491 4.768h-1.15l-2.273-7.828h1.419l1.296 4.978zm11.544 0l.167.948h.043l.203-.948 1.563-4.978h1.144l1.57 4.978.224 1.056h.042l.21-1.056 1.23-4.978h1.419l-2.273 7.828h-1.15l-1.513-4.768-.326-1.331-.042.007-.312 1.324-1.491 4.768h-1.15l-2.273-7.828h1.419l1.296 4.978zm10.105 2.851h-1.426v-1.476h1.426v1.476zm7.519-3.773c0-.886-.175-1.615-.524-2.186-.35-.571-.865-.857-1.546-.857-.41 0-.76.093-1.05.279-.289.186-.523.44-.702.762v3.78c.179.322.412.574.702.755.289.181.644.271 1.064.271.675 0 1.187-.247 1.534-.741s.521-1.131.521-1.911v-.152zm1.426.156c0 1.128-.27 2.038-.811 2.731-.541.691-1.285 1.038-2.236 1.038-.482 0-.906-.081-1.27-.242-.363-.162-.674-.404-.93-.727v3.827h-1.426v-10.837h1.093l.224 1.012c.256-.376.574-.663.955-.86.381-.198.826-.297 1.332-.297.97 0 1.724.385 2.262 1.154.538.768.807 1.786.807 3.049v.152zm6.698 2.46c-.246.42-.563.743-.948.969-.387.226-.832.339-1.339.339-.854 0-1.52-.272-1.997-.817-.478-.545-.716-1.393-.716-2.546v-4.616h1.426v4.63c0 .835.122 1.408.369 1.722.246.313.63.47 1.15.47.507 0 .925-.102 1.256-.308.33-.205.579-.495.75-.871v-5.643h1.425v7.828h-1.28l-.095-1.158zm4.601.036h4.524v1.122h-6.224v-1.006l4.234-5.701h-4.184v-1.121h5.928v.962l-4.278 5.744zm7.501 0h4.524v1.122h-6.224v-1.006l4.234-5.701h-4.184v-1.121h5.928v.962l-4.278 5.744zm7.456 1.122h-1.426v-11.286h1.426v11.286zm5.15-6.852c-.478 0-.886.201-1.223.603-.338.401-.546.905-.622 1.511l.013.036h3.612v-.188c0-.557-.149-1.024-.448-1.398-.299-.375-.743-.563-1.332-.563m.217 7.003c-1.09 0-1.958-.363-2.602-1.089-.644-.726-.966-1.667-.966-2.825v-.318c0-1.114.332-2.042.994-2.782.664-.74 1.449-1.111 2.356-1.111 1.057 0 1.855.318 2.396.955.54.636.81 1.485.81 2.546v.89h-5.08l-.023.037c.015.75.205 1.367.572 1.851.366.483.88.725 1.541.725.482 0 .906-.069 1.27-.206.364-.138.679-.327.944-.568l.558.927c-.28.277-.649.507-1.107.691-.458.185-1.014.277-1.664.277m6.051-.151h-1.426v-1.476h1.426v1.476zm5.26-.97c.472 0 .889-.146 1.249-.437.359-.292.539-.65.539-1.075h1.282l.013.044c.024.675-.275 1.276-.901 1.801-.625.526-1.352.788-2.182.788-1.139 0-2.01-.371-2.613-1.113-.603-.743-.905-1.676-.905-2.8v-.304c0-1.114.303-2.043.908-2.789.606-.744 1.475-1.118 2.609-1.118.916 0 1.665.27 2.247.811.581.54.862 1.204.843 1.989l-.015.044h-1.288c0-.478-.169-.883-.507-1.219-.337-.335-.765-.503-1.28-.503-.749 0-1.282.269-1.603.806-.322.536-.481 1.195-.481 1.976v.303c0 .8.158 1.466.477 1.998.318.533.855.799 1.607.799m6.155-5.809c.27-.376.602-.67.995-.879.393-.21.829-.315 1.306-.315.834 0 1.484.25 1.95.752.466.502.699 1.274.699 2.315v4.905h-1.426v-4.919c0-.646-.139-1.124-.416-1.433-.277-.308-.691-.463-1.241-.463-.396 0-.755.093-1.075.279-.321.186-.585.437-.793.756v5.781h-1.426v-11.286h1.426v4.508zm-129.855-21.488c-1.403 3.806-9.612 3.773-20.758 3.806 0 0 7.202-1.017 9.283-5.037 2.082-4.017 4.534-12.159 4.534-12.159-11.089-.001-12.077 3.882-12.077 3.882s-7.009 19.59-9.508 26.818c-19.419 0-16.315-9.588-16.315-9.588l9.713-27.238h19.679l-1.314 3.921s1.604-3.921 12.45-3.921c0 0 11.119.048 9.813 3.943-1.304 3.893-5.499 15.573-5.499 15.573" sketch:type="MSShapeGroup" fill="#fff" fill-rule="evenodd"/></svg>