<svg xmlns="http://www.w3.org/2000/svg" viewBox="0 0 310 80"><path fill="#FFF" fill-rule="evenodd" d="M102.86 42.84h5.07c1.47 0 2.6-.4 3.37-1.22.77-.8 1.15-1.84 1.15-3.1 0-1.3-.38-2.37-1.15-3.2-.77-.83-1.9-1.24-3.37-1.24h-5.07v8.76zm0 5.2v10h-6.8V28.88h11.87c3.47 0 6.22.88 8.26 2.65 2.03 1.77 3.05 4.1 3.05 6.95 0 2.87-1.02 5.2-3.06 6.94-2.05 1.77-4.8 2.65-8.27 2.65h-5.07zm43.26-19.17V48c0 3.32-1.1 5.9-3.32 7.72-2.22 1.83-5.12 2.75-8.72 2.75-3.63 0-6.56-.92-8.78-2.75-2.22-1.83-3.34-4.4-3.34-7.73V28.86h6.82V48c0 1.78.46 3.1 1.38 3.97.93.86 2.24 1.3 3.92 1.3 1.68 0 2.97-.44 3.87-1.3.9-.85 1.36-2.18 1.36-3.98V28.86h6.82zm11.04 23.97h13.33v5.2h-21.7V55l13.1-20.92h-13.16v-5.2h21.57v2.9l-13.14 21.06zm23.82 0h13.33v5.2h-21.68V55l13.1-20.92h-13.16v-5.2h21.57v2.9l-13.15 21.06zm22.7 0h12.6v5.2h-19.42V28.88h6.8v23.97zm33.25-7.28h-11.48v7.28h13.53v5.2h-20.34V28.88h20.38v5.2h-13.57v6.28h11.48v5.2zm22.6 12.5h-6.76v-29.2h6.77v29.2zm24.74-23.98h-7.72v23.97h-6.8V34.08h-7.67v-5.2h22.2v5.2zm24.8 13.73l.04.13c-.12 3.42-1.14 6.03-3.03 7.83-1.9 1.8-4.65 2.7-8.26 2.7-3.6 0-6.55-1.1-8.8-3.32-2.28-2.22-3.4-5.1-3.4-8.64v-6.1c0-3.52 1.08-6.4 3.26-8.62 2.18-2.22 5-3.33 8.5-3.33 3.7 0 6.52.93 8.47 2.78 1.96 1.86 3.07 4.5 3.32 7.92l-.04.12h-6.6c-.1-1.9-.52-3.3-1.28-4.23-.76-.92-2.05-1.38-3.87-1.38-1.54 0-2.75.62-3.64 1.85-.87 1.25-1.3 2.87-1.3 4.87v6.13c0 2.02.47 3.65 1.43 4.9.97 1.24 2.3 1.86 3.98 1.86 1.65 0 2.8-.44 3.5-1.3.67-.87 1.06-2.26 1.16-4.15h6.6zM11.7 68.36c-15.6-15.54-15.6-40.73 0-56.27 15.57-15.53 40.84-15.53 56.42 0 15.6 15.54 15.58 40.73 0 56.27-15.58 15.53-40.85 15.54-56.43 0zM38.85 45.1s7.18-1 9.26-5c2.07-4 4.52-12.1 4.52-12.1-11.06 0-12.05 3.86-12.05 3.86s-7 19.48-9.5 26.67C11.76 58.53 14.85 49 14.85 49l9.7-27.1h19.6l-1.3 3.9s1.6-3.9 12.42-3.9c0 0 11.1.05 9.78 3.92-1.3 3.88-5.48 15.5-5.48 15.5-1.4 3.78-9.6 3.75-20.7 3.78z"/></svg>
